<?xml version="1.0" encoding="utf-8"?>
<!-- Generator: Adobe Illustrator 24.1.1, SVG Export Plug-In . SVG Version: 6.00 Build 0)  -->
<svg version="1.1" id="Layer_1" xmlns="http://www.w3.org/2000/svg" xmlns:xlink="http://www.w3.org/1999/xlink" x="0px" y="0px"
	 viewBox="0 0 114.6 87.7" style="enable-background:new 0 0 114.6 87.7;" xml:space="preserve">
<style type="text/css">
	.st0{fill:none;stroke:#34111A;stroke-width:3.8;stroke-miterlimit:10;}
	.st1{fill:#8B2331;}
	.st2{fill:none;stroke:#34111A;stroke-width:4;stroke-miterlimit:10;}
	.st3{fill:#E0DADB;}
	.st4{fill:#FFFFFF;}
	.st5{fill:none;stroke:#34111A;stroke-width:3;stroke-miterlimit:10;}
	.st6{fill:#E9E5E5;}
	.st7{fill:none;stroke:#8B2331;stroke-width:4;stroke-miterlimit:10;}
</style>
<g id="Layer_1_1_">
	<line class="st0" x1="32.2" y1="75.8" x2="32.2" y2="84.3"/>
	<rect x="13.2" y="46.3" class="st1" width="88.6" height="14.9"/>
	<rect x="13.2" y="46.3" class="st2" width="88.6" height="14.9"/>
	<rect x="3.6" y="64.9" class="st3" width="106.9" height="19.7"/>
	<rect x="75.8" y="64.6" class="st4" width="23.1" height="20.4"/>
	<rect x="3.6" y="62.6" class="st2" width="107.8" height="22.3"/>
	<line class="st5" x1="17.9" y1="73.8" x2="57.1" y2="73.8"/>
	<rect x="22.2" y="25.7" class="st4" width="70.5" height="18.4"/>
	<rect x="57.5" y="25.4" class="st6" width="18.7" height="18.7"/>
	<rect x="22.2" y="25.1" class="st2" width="70.5" height="19.6"/>
	<line class="st5" x1="49.1" y1="29.4" x2="49.1" y2="40.4"/>
	<line class="st5" x1="43.1" y1="29.4" x2="43.1" y2="40.4"/>
	<line class="st5" x1="37.1" y1="29.4" x2="37.1" y2="40.4"/>
	<line class="st7" x1="48.3" y1="12.7" x2="42.4" y2="6.5"/>
	<line class="st7" x1="65.7" y1="12.5" x2="72.5" y2="6.7"/>
	<line class="st7" x1="56.8" y1="11.8" x2="56.8" y2="1.6"/>
</g>
</svg>
